<?xml version="1.0" encoding="utf-8"?>
<!-- Generator: Adobe Illustrator 22.1.0, SVG Export Plug-In . SVG Version: 6.00 Build 0)  -->
<svg version="1.1" id="圖層_1" xmlns="http://www.w3.org/2000/svg" xmlns:xlink="http://www.w3.org/1999/xlink" x="0px" y="0px"
	 viewBox="0 0 48 14.4" style="enable-background:new 0 0 48 14.4;" xml:space="preserve">
<style type="text/css">
	.st0{fill:#008989;}
	.st1{fill:none;stroke:#000000;stroke-width:0.5;stroke-miterlimit:10;}
</style>
<g>
	<path class="st0" d="M4.2,9.1C3.9,9.5,3.3,9.7,2.7,9.7h-2V4h2c0.6,0,1.1,0.2,1.5,0.5C4.8,5.1,4.8,6,4.8,6.8
		C4.8,7.6,4.8,8.5,4.2,9.1z M3.6,5.1c-0.2-0.3-0.6-0.4-1-0.4h-1v4.1h1c0.4,0,0.7-0.1,1-0.4c0.3-0.3,0.3-0.9,0.3-1.7
		C3.9,6,3.9,5.5,3.6,5.1z"/>
	<path class="st0" d="M8.2,7.4H6.9v2.2H6.1V4h2.2c1.1,0,1.8,0.7,1.8,1.7S9.3,7.4,8.2,7.4z M8.2,4.8H6.9v1.9h1.2c0.6,0,1-0.3,1-0.9
		S8.8,4.8,8.2,4.8z"/>
	<path class="st0" d="M15.7,9.7H15l-1.2-4l-1.2,4h-0.8L10.4,4h0.9l1,4.1L13.5,4h0.7l1.1,4.1l1-4.1h0.9L15.7,9.7z"/>
</g>
<line class="st1" x1="18.3" y1="1.7" x2="18.3" y2="12.3"/>
<g>
	<path d="M21.3,4c0.4,0,0.5,0,0.5,0.1c0,0.1,0,0.1-0.1,0.1c-0.1,0-0.1,0.1-0.1,0.1v0.2h1.2c0,0,0.1,0,0.1,0.1v0.2
		c0,0.1,0,0.1-0.1,0.1h-0.5l0.2,0.1c0,0,0.1,0.1,0.1,0.1s0,0,0,0c0,0-0.1,0-0.1,0.1c-0.1,0.2-0.2,0.5-0.3,0.8H23c0,0,0,0,0,0.1v0.2
		c0,0.1,0,0.1,0,0.1h-3.2c0,0,0,0,0-0.1V6.2c0-0.1,0-0.1,0-0.1h2.3l-0.3-0.2c0.1-0.2,0.2-0.3,0.2-0.5c0.1-0.2,0.1-0.3,0.1-0.5h-1.5
		c0.1,0.2,0.2,0.3,0.2,0.5c0.1,0.2,0.1,0.3,0.2,0.5c0,0-0.1,0.1-0.4,0.1c0-0.1-0.1-0.3-0.1-0.4c-0.1-0.2-0.2-0.4-0.3-0.6
		c0,0,0.1-0.1,0.2-0.1h-0.4c0,0-0.1,0-0.1-0.1V4.6c0-0.1,0-0.1,0.1-0.1h1.2V4.1C21.2,4,21.2,4,21.3,4z M20.3,6.8h2.3
		c0.1,0,0.1,0,0.1,0.1v3c0,0.1-0.1,0.2-0.3,0.3c-0.2,0.1-0.4,0.1-0.6,0.1c-0.1,0-0.1,0-0.1-0.1c0-0.1-0.1-0.2-0.2-0.4c0,0,0,0,0.1,0
		c0.3,0,0.5,0,0.5,0c0.1,0,0.1-0.1,0.1-0.1V9.2h-1.6v1c0,0.1,0,0.1-0.1,0.1h-0.3c-0.1,0-0.1,0-0.1-0.1L20.3,6.8
		C20.2,6.9,20.2,6.8,20.3,6.8z M20.6,7.8h1.6V7.2h-1.6V7.8z M20.6,8.8h1.6V8.2h-1.6V8.8z M23.8,4.9v0.4h2c0.1,0,0.1,0,0.1,0.1v1.1
		c0,0.1,0,0.1-0.1,0.1h-2v0.5h2c0,0,0.1,0,0.1,0.1v0.2c0,0.1,0,0.1-0.1,0.1h-2V8h2c0,0,0.1,0,0.1,0.1v0.2c0,0.1,0,0.1-0.1,0.1h-2
		v0.4h2c0,0,0.1,0,0.1,0.1v0.2c0,0.1,0,0.1-0.1,0.1h-2v0.2c0,0.2,0.1,0.3,0.3,0.3h1.3c0.2,0,0.3-0.1,0.3-0.2c0,0,0.1-0.2,0.1-0.3
		c0.1,0.1,0.3,0.2,0.4,0.2c0.1,0,0.1,0,0.1,0.1c-0.1,0.2-0.1,0.4-0.2,0.4c-0.1,0.1-0.2,0.2-0.5,0.2H24c-0.4,0-0.6-0.1-0.6-0.4V6.4
		c0-0.1,0-0.1,0.1-0.1h2V5.8h-2c-0.1,0-0.1,0-0.1-0.1V4c0-0.1,0-0.1,0.1-0.1C23.8,4,24,4,24,4c0,0.1,0,0.1-0.1,0.1
		c0,0-0.1,0.1-0.1,0.1v0.2h2.3c0,0,0.1,0,0.1,0.1v0.2c0,0.1,0,0.1-0.1,0.1H23.8z"/>
	<path d="M27.5,4.2h4.8c0,0,0.1,0,0.1,0.1c0.1,0.1,0.1,0.2,0.1,0.2c0,0.5-0.1,1-0.1,1.4c0,0.4,0,0.8,0,1.2c0,0.9,0.1,1.6,0.2,2.1
		c0.1,0.4,0.2,0.6,0.3,0.6c0,0,0.1,0,0.1-0.1C33,9.5,33,9.2,33,8.9c0,0,0,0,0,0c0,0,0,0,0.1,0C33.2,8.9,33.3,9,33.4,9c0,0,0,0,0,0.1
		c-0.1,0.5-0.2,0.8-0.3,1c-0.1,0.1-0.1,0.2-0.2,0.2c-0.1,0-0.3-0.1-0.4-0.4c-0.2-0.3-0.3-0.7-0.3-1.2C32,8.2,32,7.6,32,7
		c0-0.6,0-1.5,0.1-2.5h-4.2v1.9c0,0.8,0,1.5-0.1,1.9c-0.1,0.4-0.2,0.8-0.3,1.2c-0.1,0.2-0.2,0.5-0.3,0.7c0,0,0,0-0.1,0
		c-0.1-0.1-0.2-0.1-0.3-0.2c0,0,0-0.1,0-0.1c0.1-0.2,0.2-0.5,0.3-0.8c0.1-0.4,0.2-0.8,0.2-1.2c0-0.4,0.1-0.9,0.1-1.5V4.2
		C27.4,4.2,27.4,4.2,27.5,4.2z M28.3,8.9l0.2,0c0,0,0.1,0,0.1,0.1c-0.1,0.4-0.2,0.8-0.3,1.1c0,0,0,0,0,0c-0.1,0-0.1,0-0.2,0
		c-0.1,0-0.2-0.1-0.3-0.1c0,0-0.1,0-0.1-0.1C28,9.6,28.1,9.3,28.3,8.9C28.2,8.9,28.2,8.9,28.3,8.9z M28.2,4.9h3.4c0,0,0.1,0,0.1,0.1
		v0.2c0,0.1,0,0.1-0.1,0.1H30c-0.1,0.1-0.1,0.3-0.2,0.4h1.5c0.1,0,0.1,0,0.1,0.1v1.5c0,0.1,0,0.1-0.1,0.1H29v0.3h2.7
		c0,0,0.1,0,0.1,0.1v0.2c0,0.1,0,0.1-0.1,0.1H29v0.4h2.7c0.1,0,0.1,0,0.1,0.1c0,0.5,0,0.9-0.1,1.1c0,0.3-0.1,0.5-0.2,0.6
		c-0.1,0.2-0.3,0.2-0.7,0.2c-0.2,0-0.3,0-0.3-0.1c0-0.1-0.1-0.2-0.1-0.4v0c0.2,0,0.3,0,0.4,0c0.2,0,0.3,0,0.3-0.1
		c0.1-0.1,0.1-0.2,0.1-0.4c0-0.1,0.1-0.4,0.1-0.7h-2.7c-0.1,0-0.1,0-0.1-0.1V5.7c0-0.1,0-0.1,0.1-0.1h0.6c0.1-0.1,0.1-0.2,0.2-0.2
		c0,0,0.1-0.1,0.1-0.2h-1.3c0,0-0.1,0-0.1-0.1L28.2,4.9C28.1,5,28.2,4.9,28.2,4.9z M29,9h0.2c0.1,0,0.1,0,0.1,0
		c0,0.3,0.1,0.6,0.1,0.9c0,0,0,0.1-0.1,0.1H29c-0.1,0-0.1,0-0.1-0.1C28.9,9.7,29,9.3,29,9C29,9,29,9,29,9z M29,6.3h1.9V6H29V6.3z
		 M29,6.9h1.9V6.6H29V6.9z M29.9,9C30,9,30,9,29.9,9c0.2,0.3,0.3,0.6,0.4,0.8c0,0,0,0-0.1,0.1l-0.3,0c0,0-0.1,0-0.1-0.1
		c0-0.2-0.1-0.5-0.2-0.8c0,0,0-0.1,0.1-0.1L29.9,9z M30.6,8.8C30.6,8.8,30.6,8.8,30.6,8.8C30.8,9,31,9.3,31.1,9.5c0,0,0,0.1-0.1,0.1
		l-0.3,0.1c0,0-0.1,0-0.1-0.1c0-0.2-0.1-0.4-0.3-0.7c0,0,0-0.1,0.1-0.1L30.6,8.8z"/>
	<path d="M36.8,4c0.4,0,0.5,0,0.5,0.1c0,0.1,0,0.1-0.1,0.1c0,0-0.1,0.1-0.1,0.2v0.9h1.9c0.1,0,0.1,0,0.2,0c0.1,0.1,0.2,0.1,0.2,0.2
		c-0.3,0.5-0.6,1-0.9,1.4c-0.4,0.5-0.9,1-1.5,1.4c-0.3,0.3-0.7,0.5-1.1,0.8c0.2,0.1,0.4,0.2,0.6,0.2c0.3,0.1,0.7,0.2,1,0.2
		c0.4,0,0.9,0.1,1.8,0.1c0.2,0,0.5,0,0.8-0.1c0,0,0.1,0,0.1,0.1C40.1,9.7,40,9.9,40,10c0,0.1,0,0.1-0.1,0.1c-0.7,0-1.3,0-1.9,0
		c-0.5,0-0.9-0.1-1.3-0.2c-0.5-0.1-0.9-0.3-1.2-0.6C35.2,9.1,35,9,34.9,8.8c0,0.1-0.1,0.3-0.2,0.4c-0.1,0.2-0.3,0.6-0.5,0.9
		c0,0-0.1,0-0.1-0.1C34,10,33.9,10,33.8,9.9c0,0,0-0.1,0-0.1c0.2-0.2,0.4-0.5,0.5-0.7c0.2-0.3,0.3-0.6,0.4-1c0,0,0.1,0,0.1,0h0.3
		c0.1,0,0.1,0,0.1,0.1c0,0.3,0.1,0.5,0.2,0.6c0,0,0.1,0.1,0.1,0.1c0.4-0.2,0.8-0.5,1.1-0.7c0.6-0.5,1.1-1,1.6-1.5
		c0.3-0.3,0.5-0.6,0.6-0.8h-4.3c0,0-0.1,0-0.1-0.1V5.3c0-0.1,0-0.1,0.1-0.1h2.2V4C36.7,4,36.7,4,36.8,4z"/>
	<path d="M44.1,5.1c0.3,0.2,0.5,0.3,0.5,0.3c0,0.1,0,0.1-0.1,0.1c0,0,0,0-0.1,0C44.6,5.8,44.8,6,45,6.1c0.3,0.2,0.5,0.4,0.8,0.5
		c0.4,0.2,0.8,0.4,1.4,0.5c0.1,0,0.1,0,0.1,0c0,0,0,0.1,0,0.1c-0.1,0.1-0.2,0.2-0.3,0.2c0,0,0,0.1-0.1,0.1c-0.4-0.1-0.8-0.2-1-0.4
		c-0.4-0.2-0.7-0.4-1-0.6c-0.2-0.2-0.5-0.4-0.8-0.7c-0.2,0.1-0.4,0.3-0.6,0.5c-0.4,0.3-0.8,0.6-1.2,0.8c-0.3,0.1-0.6,0.3-1,0.5
		c-0.1,0-0.1,0-0.1-0.1c-0.1-0.1-0.1-0.2-0.2-0.2c0,0-0.1,0-0.1-0.1c0,0,0,0,0.1,0c0.5-0.2,0.9-0.4,1.3-0.5c0.4-0.2,0.7-0.5,1-0.7
		c0.3-0.2,0.5-0.5,0.8-0.8C44,5.2,44,5.1,44.1,5.1z M43.1,3.9l0.4,0.3c0,0,0.1,0.1,0.1,0.1c0,0,0,0-0.1,0c-0.1,0-0.1,0-0.2,0.1
		c-0.2,0.2-0.4,0.4-0.7,0.6c-0.3,0.2-0.6,0.4-1.1,0.6c-0.1,0-0.1,0-0.1-0.1c-0.1-0.1-0.2-0.1-0.2-0.2c0,0-0.1,0-0.1,0c0,0,0,0,0,0
		c0.2-0.1,0.4-0.1,0.5-0.2c0.3-0.1,0.6-0.3,0.8-0.5C42.6,4.4,42.8,4.2,43.1,3.9C43.1,3.9,43.1,3.9,43.1,3.9z M42.2,7.7h3.6
		c0.1,0,0.1,0,0.1,0.1v2.5c0,0.1,0,0.1-0.1,0.1h-0.3c-0.1,0-0.1,0-0.1-0.1V10h-2.9v0.2c0,0.1,0,0.1-0.1,0.1h-0.3
		c-0.1,0-0.1,0-0.1-0.1V7.8C42.1,7.7,42.1,7.7,42.2,7.7z M42.6,9.6h2.9V8.1h-2.9V9.6z M44.9,3.9c0.3,0.3,0.6,0.6,0.9,0.7
		c0.2,0.2,0.6,0.3,1,0.5c0.1,0,0.1,0.1,0.1,0.1c0,0-0.1,0.2-0.3,0.4c0,0-0.1,0-0.1,0c-0.8-0.5-1.4-0.9-1.8-1.3c0,0-0.1-0.1-0.1-0.1
		C44.6,4.2,44.7,4.1,44.9,3.9z"/>
</g>
</svg>
